<?xml version="1.0" encoding="UTF-8" standalone="no"?>
<!-- Created with Inkscape (http://www.inkscape.org/) -->

<svg
   width="11.78949mm"
   height="10.165611mm"
   viewBox="0 0 11.78949 10.165611"
   version="1.1"
   id="svg5"
   xml:space="preserve"
   inkscape:version="1.2.2 (b0a8486541, 2022-12-01)"
   sodipodi:docname="rabe.svg"
   xmlns:inkscape="http://www.inkscape.org/namespaces/inkscape"
   xmlns:sodipodi="http://sodipodi.sourceforge.net/DTD/sodipodi-0.dtd"
   xmlns="http://www.w3.org/2000/svg"
   xmlns:svg="http://www.w3.org/2000/svg"><sodipodi:namedview
     id="namedview7"
     pagecolor="#ffffff"
     bordercolor="#000000"
     borderopacity="0.25"
     inkscape:showpageshadow="2"
     inkscape:pageopacity="0.0"
     inkscape:pagecheckerboard="0"
     inkscape:deskcolor="#d1d1d1"
     inkscape:document-units="mm"
     showgrid="false"
     inkscape:zoom="2.587745"
     inkscape:cx="389.52834"
     inkscape:cy="425.08053"
     inkscape:window-width="2560"
     inkscape:window-height="1365"
     inkscape:window-x="0"
     inkscape:window-y="0"
     inkscape:window-maximized="1"
     inkscape:current-layer="layer2" /><defs
     id="defs2" /><g
     inkscape:groupmode="layer"
     id="layer2"
     inkscape:label="vector"
     style="display:inline"
     transform="translate(-94.749537,-108.05992)"><path
       style="fill:#1c1c1c;stroke-width:0.1"
       d="m 100.99225,110.19428 c 0.31951,-0.29396 0.75406,-0.58791 0.90742,-0.7285 0.15337,-0.14058 0.71571,-0.86908 0.89464,-0.9841 0.17893,-0.11503 0.81796,-0.42176 1.02245,-0.42176 0.20449,0 0.60069,0.10224 0.76684,0.16614 0.16614,0.0639 0.56234,0.0383 0.94576,0.0383 0.38342,0 1.00967,0.30673 1.00967,0.37063 0,0.0639 -1.35474,0.15337 -1.45699,0.20449 -0.10225,0.0511 -0.524,0.62625 -0.54957,0.7924 -0.0256,0.16615 -0.0895,1.13747 -0.0383,1.21416 0.0511,0.0767 0.17893,0.14058 0.19171,0.63903 -0.0256,0.40897 -1.84041,2.5689 -2.44109,2.60724 -0.14059,0.0256 -0.25562,1.17581 -0.24283,1.26528 0.0128,0.0895 1.03522,0.95854 1.11191,1.03523 0.21727,0.10224 0.75405,0.10224 0.75405,0.16614 0,0.0639 -1.43142,0.14059 -1.62313,0.16615 -0.0895,0.0128 -0.20449,0.57513 -0.29396,0.58791 -0.0895,0.0128 -0.0639,-0.77962 0,-0.80518 0.0639,-0.0256 0.28118,-0.0511 0.38342,-0.10224 0.10225,-0.0511 -0.17893,-0.46011 -0.30673,-0.56235 -0.12781,-0.10225 -0.47288,-0.37064 -0.53679,-0.54957 -0.0639,-0.17893 -0.17893,-0.40898 -0.42176,-0.4601 -0.24283,-0.0511 -0.5879,0.15337 -0.53678,0.31952 0.0511,0.16615 0.60069,0.75405 0.90742,0.95854 0.30674,0.20449 0.54956,0.16615 0.56235,0.23005 0.0128,0.0639 -0.67737,0.28118 -0.83074,0.29396 -0.15337,0.0128 -0.11503,0.67737 -0.24283,0.67737 -0.12781,0 -0.14059,-0.75406 -0.12781,-0.8563 0.0128,-0.10225 0.28117,-0.0511 0.28117,-0.15337 0,-0.10224 -0.9202,-0.71571 -0.9841,-0.88186 -0.0639,-0.16615 -0.0639,-0.48566 -0.242832,-0.48566 -0.17893,0 -0.562348,0.26839 -0.741275,0.524 -0.17893,0.25561 -1.623137,2.28773 -1.993773,2.42831 -0.370636,0.14059 -1.891528,0.40898 -1.917089,0.31952 -0.02556,-0.0895 0.511223,-0.74128 0.383418,-0.7924 -0.127807,-0.0511 -0.44732,0.44732 -0.575127,0.47288 -0.127807,0.0256 -0.447321,-0.11502 -0.115025,-0.4601 0.332295,-0.34507 3.361296,-3.77027 3.399636,-3.93642 0.03834,-0.16615 -1.009665,-0.0128 -1.035227,-0.12781 -0.02556,-0.11502 0.217271,-0.26839 0.293955,-0.42176 0.07668,-0.15336 -0.05112,-0.49844 0.0639,-0.57512 0.115025,-0.0767 1.49533,-0.89464 1.623134,-0.93299 0.127807,-0.0383 0.102246,-0.33229 0.242832,-0.43454 0.140586,-0.10224 0.728493,-0.63903 0.958543,-0.62624 0.23005,0.0128 0.54957,-0.17893 0.54957,-0.17893 z"
       id="path249" /></g></svg>
